<svg width="70" height="70" viewBox="0 0 70 70" fill="none" xmlns="http://www.w3.org/2000/svg">
<path d="M35 7C19.537 7 7 19.537 7 35C7 48.1203 16.0347 59.0987 28.2147 62.1367C28.084 61.7587 28 61.32 28 60.7763V55.9907C26.8637 55.9907 24.9597 55.9907 24.4813 55.9907C22.5657 55.9907 20.8623 55.167 20.0363 53.6363C19.1193 51.9353 18.9607 49.3337 16.688 47.7423C16.0137 47.2127 16.527 46.6083 17.304 46.69C18.739 47.096 19.929 48.0807 21.049 49.5413C22.1643 51.0043 22.6893 51.3357 24.773 51.3357C25.7833 51.3357 27.2953 51.2773 28.7187 51.0533C29.484 49.1097 30.807 47.32 32.424 46.4753C23.1 45.5163 18.6503 40.8777 18.6503 34.58C18.6503 31.8687 19.8053 29.246 21.7677 27.0363C21.1237 24.843 20.314 20.37 22.015 18.6667C26.2103 18.6667 28.7467 21.3873 29.3557 22.1223C31.4463 21.406 33.7423 21 36.155 21C38.5723 21 40.8777 21.406 42.973 22.127C43.575 21.3967 46.1137 18.6667 50.3183 18.6667C52.0263 20.3723 51.2073 24.864 50.5563 27.0527C52.507 29.2577 53.655 31.8733 53.655 34.58C53.655 40.873 49.2123 45.5093 39.9023 46.473C42.4643 47.81 44.3333 51.5667 44.3333 54.397V60.7763C44.3333 61.019 44.2797 61.194 44.2517 61.4017C55.1623 57.5773 63 47.2173 63 35C63 19.537 50.463 7 35 7Z" fill="#080708"/>
</svg>
