<svg width="40" height="40" viewBox="0 0 40 40" fill="none" xmlns="http://www.w3.org/2000/svg">
<path d="M20 34.6675C19.7806 34.6687 19.5632 34.6272 19.3601 34.5452C19.157 34.4632 18.9724 34.3424 18.8166 34.1898L5.86662 21.3753C4.24222 19.7532 3.33105 17.5632 3.33105 15.2811C3.33105 12.9989 4.24222 10.8089 5.86662 9.18677C7.50372 7.57345 9.72133 6.66748 12.0333 6.66748C14.3452 6.66748 16.5628 7.57345 18.2 9.18677L20 10.9656L21.7999 9.18677C23.4371 7.57345 25.6547 6.66748 27.9666 6.66748C30.2786 6.66748 32.4962 7.57345 34.1333 9.18677C35.7577 10.8089 36.6688 12.9989 36.6688 15.2811C36.6688 17.5632 35.7577 19.7532 34.1333 21.3753L21.1833 34.1898C21.0275 34.3424 20.8429 34.4632 20.6398 34.5452C20.4367 34.6272 20.2193 34.6687 20 34.6675Z" fill="white"/>
</svg>
