<svg width="50" height="50" viewBox="0 0 50 50" fill="none" xmlns="http://www.w3.org/2000/svg">
<path d="M24.9997 36.6663C31.443 36.6663 36.6663 31.443 36.6663 24.9997C36.6663 18.5564 31.443 13.333 24.9997 13.333C18.5564 13.333 13.333 18.5564 13.333 24.9997C13.333 31.443 18.5564 36.6663 24.9997 36.6663Z" fill="white"/>
<path d="M29.6667 11.4167L25 0L20.3333 11.4167C21.8333 11.1667 23.4167 11 25 11C26.5833 11 28.1667 11.1667 29.6667 11.4167ZM20.3333 38.5833L25 50L29.6667 38.5833C28.1667 38.8333 26.5833 39 25 39C23.4167 39 21.8333 38.8333 20.3333 38.5833ZM38.5833 29.6667L50 25L38.5833 20.3333C38.8333 21.8333 39 23.4167 39 25C39 26.5833 38.8333 28.1667 38.5833 29.6667ZM11.4167 20.3333L0 25L11.4167 29.6667C11.1667 28.1667 11 26.5833 11 25C11 23.4167 11.1667 21.8333 11.4167 20.3333ZM37.9167 18.6667L42.6667 7.33333L31.3333 12.0833C32.5833 13 33.8333 13.9167 34.9167 15.0833C36.0833 16.25 37 17.4167 37.9167 18.6667ZM12.0833 31.3333L7.33333 42.6667L18.6667 37.9167C17.4167 37 16.1667 36.0833 15.0833 34.9167C13.9167 33.75 13 32.5833 12.0833 31.3333ZM31.3333 37.9167L42.6667 42.6667L37.9167 31.3333C37 32.5833 36.0833 33.8333 34.9167 34.9167C33.75 36.0833 32.5833 37 31.3333 37.9167ZM18.6667 12.0833L7.33333 7.33333L12.0833 18.6667C13 17.4167 13.9167 16.1667 15.0833 15.0833C16.25 13.9167 17.4167 13 18.6667 12.0833Z" fill="white"/>
</svg>
